<svg xmlns="http://www.w3.org/2000/svg" viewBox="0 0 24 24" aria-hidden="true">
  <path
    fill="#FF4500"
    d="M17.484 6.497c-1.182 0-2.171-.821-2.433-1.924a2.93 2.93 0 0 0-2.539 2.925v.009a8.6 8.6 0 0 1 5.856 1.702 2.8 2.8 0 0 1 2.133-.727 3.505 3.505 0 0 1 1.444 6.018C21.833 18.57 17.397 21.5 11.953 21.5c-5.444 0-9.868-2.92-9.985-6.977A3.506 3.506 0 0 1 3.428 8.48c.807 0 1.55.274 2.148.736a8.633 8.633 0 0 1 5.8-1.705v-.014a3.005 3.005 0 0 1 3.602-2.975A2.494 2.494 0 1 1 17.484 6.497ZM6.63 12.488c-1.03 0-1.917 1.024-1.979 2.357-.062 1.333.84 1.875 1.872 1.875 1.03 0 1.8-.484 1.86-1.817.062-1.333-.726-2.414-1.753-2.414Zm10.646 2.357c-.061-1.333-.948-2.357-1.979-2.357s-1.813 1.08-1.752 2.414c.061 1.333.834 1.817 1.864 1.817 1.03 0 1.933-.542 1.868-1.875Zm-5.342 2.59c-1.278 0-2.5.064-3.633.178-.193.02-.316.22-.24.399.634 1.51 2.12 2.567 3.866 2.567s3.232-1.056 3.87-2.567c.074-.18-.05-.38-.244-.4-1.132-.113-2.354-.177-3.62-.177Z"
  />
</svg>
