<svg xmlns="http://www.w3.org/2000/svg" viewBox="0 0 24 24" aria-hidden="true">
  <path
    fill="#FF0000"
    d="M23.74 7.1s-.23-1.65-.95-2.37c-.91-.96-1.93-.96-2.4-1.02C17.04 3.47 12 3.5 12 3.5s-5.02-.03-8.37.21c-.46.06-1.48.06-2.39 1.02C.52 5.45.28 7.1.28 7.1S.04 9.05 0 10.98V13c.04 1.94.28 3.87.28 3.87s.24 1.65.96 2.38c.91.95 2.1.92 2.64 1.02 1.88.18 7.91.22 8.12.22 0 0 5.05.01 8.4-.23.46-.06 1.48-.06 2.39-1.02.72-.72.96-2.37.96-2.37s.24-1.94.25-3.87v-2.02c-.02-1.93-.26-3.88-.26-3.88zM9.57 15.5V8.49L16 12.13 9.57 15.5z"
  />
</svg>
